<svg xmlns="http://www.w3.org/2000/svg" viewBox="0 0 512 512" width="512" height="512">
  <rect width="512" height="512" rx="96" fill="#2563eb"/>
  <path d="M112 352a40 40 0 1 0 80 0 40 40 0 1 0-80 0zm208 0a40 40 0 1 0 80 0 40 40 0 1 0-80 0z" fill="#fff"/>
  <path d="M96 160a16 16 0 0 1 16-16h176a16 16 0 0 1 16 16v144H96V160zm224 32h56l48 64v48h-24a48 48 0 0 0-80 0h-0V192z" fill="#fff" fill-opacity="0.95"/>
  <path d="M120 200l40 40 80-88" fill="none" stroke="#2563eb" stroke-width="20" stroke-linecap="round" stroke-linejoin="round"/>
</svg>
